# xmcd
#
# Track frame offsets:
#	150
#	15180
#	30320
#	46260
#	59872
#	77493
#	95991
#	108605
#	128982
#	144004
#	169759
#	188028
#	202485
#	212842
#	227687
#	238508
#	260433
#	272794
#	290895
#	306548
#	324396
#	340710
#
# Disc length: 4731
#
# Revision: 2
# Processed by: cddbd v1.5.1PL0 Copyright (c) Steve Scherf et al.
# Submitted via: EasyCDDAExtractor 7.0.0.1
# Normalized: r1:DSETVAR1
#
DISCID=4a127916
DTITLE=Various Artist - Reflections Of The Marmalade - The Anthology [CD2]
DYEAR=1900
DGENRE=
TTITLE0=The Marmalade - Rainbow
TTITLE1=The Marmalade - The Ballad Of Cherry Flavor
TTITLE2=The Marmalade - Super Cleen Jeam
TTITLE3=The Marmalade - I'll Be Home(In A Day Or So)
TTITLE4=The Marmalade - Some Other Gay
TTITLE5=The Marmalade - Kaleidoscope
TTITLE6=The Marmalade - Dear John
TTITLE7=The Marmalade - Flight Say The Mighty
TTITLE8=The Marmalade - My Little One
TTITLE9=The Marmalade - Is Your Life Your Own
TTITLE10=The Marmalade - Stay With Me Baby
TTITLE11=The Marmalade - Cousin Norman
TTITLE12=The Marmalade - Back On The Road
TTITLE13=The Marmalade - Sarah
TTITLE14=The Marmalade - Lady Of Catrine
TTITLE15=The Marmalade - Empty Bottle
TTITLE16=The Marmalade - She Wrote Me A Letter
TTITLE17=The Marmalade - Radancer
TTITLE18=The Marmalade - Just One Woman
TTITLE19=Junior Campel - Halleluja Freedom
TTITLE20=Junior Campel - Sweet Illusion
TTITLE21=The Marmalade - Falling Apart At The Seams
EXTD=
EXTT0=
EXTT1=
EXTT2=
EXTT3=
EXTT4=
EXTT5=
EXTT6=
EXTT7=
EXTT8=
EXTT9=
EXTT10=
EXTT11=
EXTT12=
EXTT13=
EXTT14=^^HEP^^
EXTT15=
EXTT16=
EXTT17=
EXTT18=
EXTT19=
EXTT20=
EXTT21=
PLAYORDER=
